<?xml version="1.0" encoding="UTF-8"?>
<svg id="Layer_2" data-name="Layer 2" xmlns="http://www.w3.org/2000/svg" viewBox="0 0 1287.28 477.72">
  <defs>
    <style>
      .cls-1 {
        fill: #c1272d;
      }

      .cls-1, .cls-2 {
        stroke-width: 0px;
      }

      .cls-2 {
        fill: #fff;
      }
    </style>
  </defs>
  <g id="Layer_1-2" data-name="Layer 1">
    <path class="cls-2" d="m130.98,50.98c102.6,0,141.9,41.48,141.9,130.98,0,18.56-5.46,54.58-27.83,79.14,22.38,10.37,38.75,37.66,38.75,71.49,0,67.67-30.02,100.42-132.62,100.42H16.37c-10.37,0-16.37-6-16.37-16.37V67.9c0-10.92,5.46-16.37,16.37-16.92h114.61Zm13.1,304.53c26.2,0,39.29-2.73,39.29-28.38s-12.01-29.47-38.2-29.47h-35.47c-10.37,0-16.37,5.46-16.37,16.37v25.1c0,10.92,6,16.37,16.37,16.37h34.38Zm-4.37-136.44c26.2,0,39.29-3.27,39.29-37.11s-13.1-37.11-39.29-37.11h-29.47c-10.37,0-16.37,5.46-16.37,16.37v41.48c0,10.92,6,16.37,16.37,16.37h29.47Z"/>
    <path class="cls-2" d="m396.23,50.98c10.92,0,16.37,5.46,16.37,16.37v349.29c0,10.37-5.46,16.37-16.37,16.37h-60.03c-10.37,0-16.37-6-16.37-16.37V67.35c0-10.92,6-16.37,16.37-16.37h60.03Z"/>
    <path class="cls-1" d="m697.45,409.6c4.39,12.45-1.9,19.62-14.79,17.28l-66.58-12.11c-9.13-1.66-14.45-5.96-17.38-14.25l-36.76-99.87c-1.46-4.15-4.15-4.64-6.98-1.27l-67.85,80.3c-5.76,7.27-12.25,9.42-21.38,7.76l-73.03-13.28c-12.89-2.34-16.26-11.28-7.76-21.38l134.82-155.77c2.1-2.39,2.49-4.54,1.37-7.52l-63.07-171.78c-4.39-12.45,1.9-19.62,14.79-17.28l66.58,12.11c9.13,1.66,14.45,5.96,17.38,14.25l29.92,82.54c1.46,4.15,4.69,4.73,7.52,1.37l57.6-66.63c5.66-6.74,12.15-8.88,21.28-7.22l67.12,12.2c12.35,2.25,15.72,11.18,7.22,21.28l-118.91,141.47c-2.1,2.39-2.49,4.54-1.37,7.52l70.25,190.28Z"/>
    <path class="cls-2" d="m938.54,95.69c10.92,0,16.37,5.46,16.37,16.37v61.13c0,10.37-5.46,16.37-16.37,16.37h-132.07c-10.37,0-16.37,5.46-16.37,16.37v17.46c0,10.37,6,16.37,16.37,16.37h84.59c10.92,0,16.37,5.46,16.37,16.37v61.12c0,10.37-5.46,16.37-16.37,16.37h-84.59c-10.37,0-16.37,5.46-16.37,16.37v17.46c0,10.37,6,16.37,16.37,16.37h132.07c10.92,0,16.37,5.46,16.37,16.37v61.12c0,10.92-5.46,16.37-16.37,16.37h-229.22c-10.37,0-16.37-6-16.37-16.37V112.06c0-10.92,6-16.37,16.37-16.37h229.22Z"/>
    <path class="cls-2" d="m1093.53,95.69c9.28,0,15.28,3.82,19.1,12.55l74.22,181.74c2.18,4.91,6.55,3.82,6.55-1.64V112.06c0-10.92,6-16.37,16.37-16.37h61.12c10.92,0,16.37,5.46,16.37,16.37v349.29c0,10.37-5.46,16.37-16.37,16.37h-80.23c-9.28,0-15.28-3.82-19.1-12.55l-74.22-181.74c-2.18-4.91-6.55-3.82-6.55,1.64v176.28c0,10.37-5.46,16.37-16.37,16.37h-61.12c-10.37,0-16.37-6-16.37-16.37V112.06c0-10.92,6-16.37,16.37-16.37h80.23Z"/>
  </g>
</svg>