<?xml version="1.0" encoding="UTF-8"?>
<svg id="Layer_2" data-name="Layer 2" xmlns="http://www.w3.org/2000/svg" viewBox="0 0 371.92 427.32">
  <defs>
    <style>
      .cls-1 {
        fill: #c1272d;
        stroke-width: 0px;
      }
    </style>
  </defs>
  <g id="Layer_1-2" data-name="Layer 1">
    <path class="cls-1" d="m317.18,409.6c4.39,12.45-1.9,19.62-14.79,17.28l-66.58-12.11c-9.13-1.66-14.45-5.96-17.38-14.25l-36.76-99.87c-1.46-4.15-4.15-4.64-6.98-1.27l-67.85,80.3c-5.76,7.27-12.25,9.42-21.38,7.76l-73.03-13.28c-12.89-2.34-16.26-11.28-7.76-21.38l134.82-155.77c2.1-2.39,2.49-4.54,1.37-7.52L77.79,17.72c-4.39-12.45,1.9-19.62,14.79-17.28l66.58,12.11c9.13,1.66,14.45,5.96,17.38,14.25l29.92,82.54c1.46,4.15,4.69,4.73,7.52,1.37l57.6-66.63c5.66-6.74,12.15-8.88,21.28-7.22l67.12,12.2c12.35,2.25,15.72,11.18,7.22,21.28l-118.91,141.47c-2.1,2.39-2.49,4.54-1.37,7.52l70.25,190.28Z"/>
  </g>
</svg>